<svg xmlns="http://www.w3.org/2000/svg" id="Layer_1" data-name="Layer 1" viewBox="0 0 100 100"><defs><style>.cls-1{fill:#00242b}.cls-1,.cls-10,.cls-11,.cls-12,.cls-2,.cls-3,.cls-4,.cls-5,.cls-6,.cls-7,.cls-8,.cls-9{fill-rule:evenodd}.cls-2{fill:#85c8d6}.cls-3{fill:#153f49}.cls-4{fill:#9ad0da}.cls-5{fill:#2d5b69}.cls-6{fill:#aedee6}.cls-7{fill:#3f7080}.cls-8{fill:#beeaf3}.cls-9{fill:#578c9b}.cls-10{fill:#e2e2e2}.cls-11{fill:#70adbc}.cls-12{fill:#141515}</style></defs><title>Artboard 3</title><path d="M34.33,22.88a9.34,9.34,0,1,1,3.43-12.77,9.34,9.34,0,0,1-3.43,12.77Z" class="cls-1"/><path d="M75,93.3a9.34,9.34,0,1,1,3.41-12.75A9.34,9.34,0,0,1,75,93.3Z" class="cls-2"/><path d="M22.88,34.33a9.34,9.34,0,1,1-3.43-12.75,9.37,9.37,0,0,1,3.43,12.75Z" class="cls-3"/><path d="M93.3,75a9.34,9.34,0,1,1-3.41-12.77A9.31,9.31,0,0,1,93.3,75Z" class="cls-4"/><path d="M18.66,50a9.33,9.33,0,1,1-9.34-9.34A9.33,9.33,0,0,1,18.66,50Z" class="cls-5"/><path d="M100,50a9.33,9.33,0,1,1-9.35-9.34A9.33,9.33,0,0,1,100,50Z" class="cls-6"/><path d="M22.88,65.67a9.34,9.34,0,1,1-12.77-3.43,9.34,9.34,0,0,1,12.77,3.43Z" class="cls-7"/><path d="M93.3,25a9.34,9.34,0,1,1-12.75-3.41A9.34,9.34,0,0,1,93.3,25Z" class="cls-8"/><path d="M34.33,77.12a9.34,9.34,0,1,1-12.75,3.43,9.36,9.36,0,0,1,12.75-3.43Z" class="cls-9"/><path d="M75,6.7a9.34,9.34,0,1,1-12.77,3.41A9.33,9.33,0,0,1,75,6.7Z" class="cls-10"/><path d="M50,81.34a9.33,9.33,0,1,1-9.34,9.32A9.33,9.33,0,0,1,50,81.34Z" class="cls-11"/><path d="M50,0a9.33,9.33,0,1,1-9.34,9.34A9.33,9.33,0,0,1,50,0Z" class="cls-12"/></svg>